<svg version="1.1" viewBox="0 0 100 100" xmlns="http://www.w3.org/2000/svg">
 <rect width="100" height="100" rx="22" fill="#1E1E2E"/>
 <g transform="matrix(1.3521 0 0 1.3521 -17.603 -27.581)">
  <path d="m78 58a28 28 0 0 1-28 28 28 28 0 0 1-28-28 28 28 0 0 1 28-28 28 28 0 0 1 28 28z" fill="#252538" stop-color="#000000"/>
  <path d="m49.956 30.448c-4.4294 0.048619-3.0266-3.8355-4.516-3.6182-15.206 2.2192-26.94 15.363-26.94 31.17 0 17.356 14.144 31.5 31.5 31.5s31.5-14.144 31.5-31.5c0-15.92-11.901-29.138-27.265-31.216-1.3856-0.1874-0.62042 3.6237-4.2794 3.6639zm0.04436 3.0519c13.572 0 24.5 10.928 24.5 24.5s-10.928 24.5-24.5 24.5-24.5-10.928-24.5-24.5 10.928-24.5 24.5-24.5z" fill="#4dabf7" stop-color="#000000"/>
 </g>
 <line x1="50" x2="50" y1="50.838" y2="23.797" stroke="#c1c2c5" stroke-linecap="round" stroke-width="9.4645"/>
 <line x1="50" x2="74.337" y1="50.838" y2="50.838" stroke="#69db7c" stroke-linecap="round" stroke-width="8.1124"/>
 <circle cx="50" cy="50.838" r="8.1124" fill="#4dabf7" stroke-width="1.3521"/>
 <circle cx="49.752" cy="8.1657" r="4.0785" fill="#4dabf7" stroke-width="1.3521"/>
</svg>
